<svg xmlns="http://www.w3.org/2000/svg" viewBox="0 0 824 383" role="img" aria-label="삼초 logo">
  <path fill="#6C4B37" fill-rule="evenodd" d="M418.0,355.0 L419.0,356.0 L419.0,358.0 L420.0,359.0 L420.0,360.0 L423.0,363.0 L424.0,363.0 L425.0,364.0 L428.0,364.0 L429.0,365.0 L779.0,365.0 L780.0,364.0 L784.0,364.0 L785.0,363.0 L787.0,363.0 L788.0,362.0 L790.0,362.0 L791.0,361.0 L792.0,361.0 L794.0,359.0 L795.0,359.0 L797.0,357.0 L798.0,357.0 L804.0,351.0 L804.0,350.0 L807.0,347.0 L807.0,346.0 L810.0,341.0 L810.0,339.0 L811.0,338.0 L811.0,335.0 L812.0,334.0 L812.0,329.0 L813.0,328.0 L813.0,323.0 L812.0,322.0 L812.0,320.0 L811.0,319.0 L811.0,318.0 L806.0,315.0 L665.0,315.0 L664.0,314.0 L661.0,314.0 L656.0,311.0 L656.0,310.0 L654.0,308.0 L654.0,306.0 L653.0,305.0 L653.0,299.0 L654.0,298.0 L654.0,288.0 L655.0,287.0 L655.0,278.0 L656.0,277.0 L656.0,260.0 L655.0,259.0 L653.0,254.0 L648.0,249.0 L647.0,249.0 L642.0,246.0 L637.0,246.0 L636.0,245.0 L599.0,245.0 L598.0,246.0 L595.0,246.0 L594.0,247.0 L592.0,247.0 L588.0,250.0 L587.0,250.0 L584.0,253.0 L584.0,254.0 L581.0,258.0 L581.0,260.0 L580.0,261.0 L580.0,264.0 L579.0,265.0 L579.0,275.0 L578.0,276.0 L578.0,286.0 L577.0,287.0 L577.0,298.0 L576.0,299.0 L576.0,302.0 L575.0,303.0 L575.0,305.0 L574.0,306.0 L574.0,307.0 L569.0,312.0 L568.0,312.0 L565.0,314.0 L561.0,314.0 L560.0,315.0 L443.0,315.0 L442.0,316.0 L439.0,316.0 L438.0,317.0 L436.0,317.0 L432.0,320.0 L431.0,320.0 L424.0,327.0 L424.0,328.0 L421.0,333.0 L421.0,335.0 L420.0,336.0 L420.0,340.0 L419.0,341.0 L419.0,349.0 L418.0,350.0 Z M45.0,266.0 L45.0,272.0 L44.0,273.0 L44.0,284.0 L43.0,285.0 L43.0,295.0 L42.0,296.0 L42.0,307.0 L41.0,308.0 L41.0,317.0 L40.0,318.0 L40.0,328.0 L39.0,329.0 L39.0,341.0 L40.0,342.0 L40.0,346.0 L41.0,347.0 L41.0,349.0 L42.0,350.0 L42.0,352.0 L43.0,353.0 L44.0,356.0 L50.0,363.0 L51.0,363.0 L54.0,366.0 L55.0,366.0 L59.0,369.0 L61.0,369.0 L62.0,370.0 L64.0,370.0 L65.0,371.0 L69.0,371.0 L70.0,372.0 L326.0,372.0 L327.0,371.0 L332.0,371.0 L333.0,370.0 L336.0,370.0 L337.0,369.0 L342.0,368.0 L343.0,367.0 L350.0,364.0 L352.0,362.0 L353.0,362.0 L355.0,360.0 L356.0,360.0 L365.0,351.0 L365.0,350.0 L368.0,347.0 L369.0,344.0 L371.0,342.0 L371.0,341.0 L373.0,338.0 L373.0,336.0 L374.0,335.0 L374.0,333.0 L375.0,332.0 L375.0,330.0 L376.0,329.0 L376.0,326.0 L377.0,325.0 L377.0,317.0 L378.0,316.0 L378.0,307.0 L379.0,306.0 L379.0,297.0 L380.0,296.0 L380.0,287.0 L381.0,286.0 L381.0,276.0 L382.0,275.0 L382.0,266.0 L383.0,265.0 L383.0,255.0 L384.0,254.0 L384.0,238.0 L383.0,237.0 L383.0,236.0 L379.0,232.0 L377.0,232.0 L376.0,231.0 L81.0,231.0 L80.0,232.0 L76.0,232.0 L75.0,233.0 L73.0,233.0 L72.0,234.0 L65.0,237.0 L63.0,239.0 L62.0,239.0 L57.0,244.0 L56.0,244.0 L56.0,245.0 L51.0,251.0 L51.0,252.0 L47.0,259.0 L47.0,261.0 L46.0,262.0 L46.0,265.0 Z M121.0,316.0 L121.0,314.0 L122.0,313.0 L122.0,303.0 L123.0,302.0 L123.0,293.0 L124.0,292.0 L124.0,288.0 L125.0,287.0 L125.0,285.0 L127.0,283.0 L127.0,282.0 L129.0,280.0 L130.0,280.0 L132.0,278.0 L133.0,278.0 L134.0,277.0 L298.0,277.0 L301.0,280.0 L301.0,281.0 L302.0,282.0 L302.0,291.0 L301.0,292.0 L301.0,302.0 L300.0,303.0 L300.0,312.0 L299.0,313.0 L299.0,315.0 L298.0,316.0 L297.0,319.0 L291.0,325.0 L290.0,325.0 L287.0,327.0 L283.0,327.0 L282.0,328.0 L133.0,328.0 L132.0,327.0 L129.0,327.0 L128.0,326.0 L127.0,326.0 L123.0,322.0 L123.0,321.0 L122.0,320.0 L122.0,317.0 Z M636.0,195.0 L636.0,197.0 L644.0,205.0 L645.0,205.0 L651.0,211.0 L652.0,211.0 L657.0,216.0 L658.0,216.0 L661.0,219.0 L662.0,219.0 L666.0,223.0 L667.0,223.0 L669.0,225.0 L670.0,225.0 L672.0,227.0 L673.0,227.0 L676.0,230.0 L677.0,230.0 L682.0,234.0 L685.0,235.0 L690.0,239.0 L691.0,239.0 L692.0,240.0 L695.0,241.0 L697.0,243.0 L698.0,243.0 L699.0,244.0 L702.0,245.0 L704.0,247.0 L705.0,247.0 L706.0,248.0 L707.0,248.0 L708.0,249.0 L709.0,249.0 L710.0,250.0 L711.0,250.0 L712.0,251.0 L713.0,251.0 L714.0,252.0 L715.0,252.0 L716.0,253.0 L717.0,253.0 L722.0,256.0 L724.0,256.0 L725.0,257.0 L726.0,257.0 L731.0,260.0 L733.0,260.0 L734.0,261.0 L735.0,261.0 L736.0,262.0 L738.0,262.0 L741.0,264.0 L743.0,264.0 L744.0,265.0 L746.0,265.0 L747.0,266.0 L749.0,266.0 L750.0,267.0 L752.0,267.0 L753.0,268.0 L755.0,268.0 L756.0,269.0 L758.0,269.0 L759.0,270.0 L762.0,270.0 L763.0,271.0 L766.0,271.0 L767.0,272.0 L775.0,272.0 L776.0,271.0 L778.0,271.0 L779.0,270.0 L781.0,270.0 L782.0,269.0 L783.0,269.0 L785.0,267.0 L786.0,267.0 L789.0,264.0 L790.0,264.0 L803.0,251.0 L803.0,250.0 L805.0,247.0 L805.0,245.0 L804.0,244.0 L804.0,242.0 L803.0,241.0 L802.0,241.0 L800.0,239.0 L798.0,239.0 L797.0,238.0 L795.0,238.0 L794.0,237.0 L791.0,237.0 L790.0,236.0 L788.0,236.0 L787.0,235.0 L785.0,235.0 L784.0,234.0 L782.0,234.0 L779.0,232.0 L777.0,232.0 L776.0,231.0 L774.0,231.0 L773.0,230.0 L772.0,230.0 L771.0,229.0 L769.0,229.0 L764.0,226.0 L762.0,226.0 L761.0,225.0 L760.0,225.0 L759.0,224.0 L758.0,224.0 L757.0,223.0 L756.0,223.0 L755.0,222.0 L754.0,222.0 L749.0,219.0 L747.0,219.0 L746.0,218.0 L743.0,217.0 L741.0,215.0 L740.0,215.0 L739.0,214.0 L738.0,214.0 L737.0,213.0 L734.0,212.0 L732.0,210.0 L729.0,209.0 L727.0,207.0 L726.0,207.0 L725.0,206.0 L724.0,206.0 L722.0,204.0 L719.0,203.0 L716.0,200.0 L715.0,200.0 L713.0,198.0 L712.0,198.0 L710.0,196.0 L709.0,196.0 L706.0,193.0 L705.0,193.0 L702.0,190.0 L701.0,190.0 L697.0,186.0 L696.0,186.0 L690.0,180.0 L689.0,180.0 L667.0,158.0 L666.0,158.0 L664.0,160.0 L663.0,163.0 L661.0,165.0 L661.0,166.0 L659.0,168.0 L659.0,169.0 L656.0,172.0 L656.0,173.0 L653.0,176.0 L653.0,177.0 L648.0,182.0 L648.0,183.0 L638.0,193.0 L638.0,194.0 L637.0,195.0 Z M281.0,197.0 L281.0,196.0 L273.0,187.0 L273.0,186.0 L270.0,183.0 L270.0,182.0 L267.0,179.0 L267.0,178.0 L263.0,174.0 L263.0,173.0 L259.0,169.0 L259.0,168.0 L255.0,164.0 L255.0,163.0 L251.0,159.0 L251.0,158.0 L247.0,154.0 L247.0,153.0 L239.0,144.0 L239.0,143.0 L232.0,135.0 L232.0,134.0 L229.0,131.0 L229.0,130.0 L225.0,126.0 L225.0,125.0 L221.0,121.0 L221.0,120.0 L217.0,116.0 L217.0,115.0 L213.0,111.0 L213.0,110.0 L209.0,106.0 L209.0,105.0 L205.0,101.0 L205.0,100.0 L201.0,96.0 L201.0,95.0 L198.0,92.0 L198.0,91.0 L194.0,87.0 L194.0,86.0 L190.0,82.0 L190.0,81.0 L185.0,75.0 L185.0,71.0 L186.0,70.0 L186.0,69.0 L188.0,67.0 L188.0,66.0 L190.0,64.0 L190.0,63.0 L191.0,62.0 L191.0,61.0 L193.0,59.0 L194.0,56.0 L196.0,54.0 L196.0,53.0 L199.0,48.0 L199.0,46.0 L202.0,41.0 L202.0,39.0 L204.0,36.0 L204.0,32.0 L205.0,31.0 L205.0,28.0 L204.0,27.0 L204.0,24.0 L202.0,22.0 L202.0,21.0 L201.0,21.0 L199.0,19.0 L197.0,19.0 L196.0,18.0 L192.0,18.0 L191.0,17.0 L154.0,17.0 L153.0,18.0 L148.0,18.0 L147.0,19.0 L142.0,20.0 L141.0,21.0 L140.0,21.0 L138.0,23.0 L137.0,23.0 L129.0,31.0 L129.0,32.0 L126.0,35.0 L126.0,36.0 L123.0,39.0 L123.0,40.0 L120.0,43.0 L120.0,44.0 L117.0,47.0 L117.0,48.0 L113.0,52.0 L113.0,53.0 L110.0,56.0 L110.0,57.0 L107.0,60.0 L107.0,61.0 L104.0,64.0 L104.0,65.0 L101.0,68.0 L101.0,69.0 L98.0,72.0 L98.0,73.0 L94.0,77.0 L94.0,78.0 L91.0,81.0 L91.0,82.0 L88.0,85.0 L88.0,86.0 L85.0,89.0 L85.0,90.0 L81.0,94.0 L81.0,95.0 L76.0,101.0 L76.0,102.0 L72.0,106.0 L72.0,107.0 L69.0,110.0 L69.0,111.0 L66.0,114.0 L66.0,115.0 L63.0,118.0 L63.0,119.0 L60.0,122.0 L60.0,123.0 L56.0,127.0 L56.0,128.0 L53.0,131.0 L53.0,132.0 L50.0,135.0 L50.0,136.0 L47.0,139.0 L47.0,140.0 L44.0,143.0 L44.0,144.0 L40.0,148.0 L40.0,149.0 L37.0,152.0 L37.0,153.0 L34.0,156.0 L34.0,157.0 L31.0,160.0 L31.0,161.0 L28.0,164.0 L28.0,165.0 L21.0,173.0 L21.0,174.0 L18.0,177.0 L18.0,178.0 L15.0,181.0 L15.0,182.0 L10.0,188.0 L10.0,194.0 L12.0,196.0 L13.0,196.0 L14.0,197.0 L78.0,197.0 L79.0,196.0 L82.0,196.0 L83.0,195.0 L86.0,194.0 L88.0,192.0 L89.0,192.0 L96.0,185.0 L96.0,184.0 L100.0,180.0 L100.0,179.0 L103.0,176.0 L103.0,175.0 L106.0,172.0 L106.0,171.0 L109.0,168.0 L109.0,167.0 L113.0,163.0 L113.0,162.0 L116.0,159.0 L116.0,158.0 L119.0,155.0 L119.0,154.0 L123.0,150.0 L123.0,149.0 L126.0,146.0 L126.0,145.0 L129.0,142.0 L129.0,141.0 L133.0,137.0 L133.0,136.0 L136.0,133.0 L136.0,132.0 L140.0,128.0 L140.0,127.0 L143.0,124.0 L143.0,123.0 L147.0,119.0 L147.0,118.0 L150.0,115.0 L150.0,114.0 L153.0,111.0 L153.0,110.0 L157.0,106.0 L159.0,106.0 L166.0,114.0 L166.0,115.0 L171.0,120.0 L171.0,121.0 L176.0,126.0 L176.0,127.0 L180.0,131.0 L180.0,132.0 L185.0,137.0 L185.0,138.0 L190.0,143.0 L190.0,144.0 L195.0,149.0 L195.0,150.0 L200.0,155.0 L200.0,156.0 L205.0,161.0 L205.0,162.0 L214.0,172.0 L214.0,173.0 L218.0,177.0 L218.0,178.0 L222.0,182.0 L222.0,183.0 L232.0,194.0 L233.0,194.0 L235.0,196.0 L237.0,196.0 L238.0,197.0 Z M787.0,76.0 L783.0,72.0 L781.0,72.0 L780.0,71.0 L680.0,71.0 L679.0,70.0 L676.0,70.0 L674.0,69.0 L668.0,62.0 L668.0,30.0 L667.0,29.0 L666.0,23.0 L662.0,18.0 L662.0,17.0 L657.0,13.0 L653.0,12.0 L652.0,11.0 L649.0,11.0 L648.0,10.0 L608.0,10.0 L607.0,11.0 L604.0,11.0 L598.0,14.0 L594.0,18.0 L591.0,24.0 L591.0,54.0 L590.0,55.0 L590.0,60.0 L587.0,65.0 L582.0,69.0 L580.0,69.0 L579.0,70.0 L575.0,70.0 L574.0,71.0 L527.0,71.0 L526.0,70.0 L525.0,71.0 L522.0,71.0 L521.0,70.0 L519.0,71.0 L485.0,71.0 L478.0,74.0 L473.0,79.0 L470.0,85.0 L470.0,88.0 L469.0,89.0 L469.0,102.0 L468.0,103.0 L468.0,108.0 L469.0,109.0 L469.0,112.0 L470.0,114.0 L474.0,118.0 L476.0,119.0 L488.0,119.0 L489.0,120.0 L500.0,120.0 L501.0,119.0 L553.0,119.0 L554.0,120.0 L556.0,119.0 L560.0,119.0 L561.0,120.0 L562.0,119.0 L566.0,119.0 L567.0,120.0 L569.0,120.0 L570.0,119.0 L577.0,119.0 L578.0,120.0 L582.0,120.0 L586.0,124.0 L586.0,132.0 L582.0,140.0 L581.0,144.0 L579.0,146.0 L577.0,151.0 L575.0,153.0 L574.0,156.0 L571.0,159.0 L569.0,163.0 L562.0,171.0 L562.0,172.0 L555.0,179.0 L555.0,180.0 L541.0,194.0 L540.0,194.0 L523.0,209.0 L512.0,216.0 L506.0,221.0 L503.0,222.0 L501.0,224.0 L495.0,227.0 L493.0,229.0 L490.0,230.0 L488.0,232.0 L479.0,236.0 L477.0,238.0 L458.0,247.0 L455.0,253.0 L456.0,254.0 L456.0,256.0 L464.0,265.0 L468.0,267.0 L479.0,267.0 L480.0,266.0 L483.0,266.0 L484.0,265.0 L486.0,265.0 L487.0,264.0 L489.0,264.0 L490.0,263.0 L492.0,263.0 L499.0,260.0 L502.0,260.0 L505.0,258.0 L510.0,257.0 L513.0,255.0 L518.0,254.0 L523.0,251.0 L530.0,249.0 L541.0,243.0 L543.0,243.0 L553.0,238.0 L555.0,236.0 L557.0,236.0 L559.0,234.0 L566.0,231.0 L568.0,229.0 L576.0,225.0 L578.0,223.0 L597.0,211.0 L601.0,207.0 L602.0,207.0 L610.0,200.0 L611.0,200.0 L618.0,193.0 L619.0,193.0 L633.0,179.0 L633.0,178.0 L643.0,167.0 L645.0,163.0 L652.0,154.0 L654.0,149.0 L656.0,147.0 L659.0,141.0 L659.0,139.0 L663.0,131.0 L664.0,126.0 L669.0,121.0 L671.0,120.0 L676.0,120.0 L677.0,119.0 L741.0,119.0 L743.0,120.0 L744.0,119.0 L760.0,119.0 L761.0,118.0 L766.0,117.0 L776.0,111.0 L782.0,104.0 L787.0,93.0 L787.0,87.0 L788.0,86.0 L788.0,79.0 L787.0,78.0 Z M323.0,10.0 L322.0,11.0 L318.0,11.0 L317.0,12.0 L316.0,12.0 L315.0,13.0 L312.0,14.0 L309.0,17.0 L309.0,18.0 L307.0,20.0 L307.0,21.0 L306.0,22.0 L306.0,24.0 L305.0,25.0 L305.0,138.0 L304.0,139.0 L304.0,196.0 L305.0,197.0 L305.0,201.0 L306.0,202.0 L306.0,203.0 L308.0,205.0 L309.0,205.0 L312.0,207.0 L351.0,207.0 L352.0,206.0 L356.0,206.0 L359.0,204.0 L361.0,204.0 L363.0,202.0 L364.0,202.0 L366.0,200.0 L367.0,200.0 L370.0,197.0 L370.0,196.0 L374.0,191.0 L374.0,189.0 L376.0,186.0 L376.0,182.0 L377.0,181.0 L377.0,154.0 L378.0,153.0 L378.0,151.0 L379.0,150.0 L379.0,149.0 L384.0,144.0 L385.0,144.0 L388.0,142.0 L390.0,142.0 L391.0,141.0 L411.0,141.0 L412.0,140.0 L415.0,140.0 L416.0,139.0 L418.0,139.0 L419.0,138.0 L421.0,138.0 L423.0,136.0 L424.0,136.0 L427.0,133.0 L428.0,133.0 L430.0,131.0 L430.0,130.0 L433.0,127.0 L433.0,126.0 L434.0,125.0 L434.0,124.0 L437.0,119.0 L437.0,116.0 L438.0,115.0 L438.0,108.0 L439.0,107.0 L439.0,102.0 L438.0,101.0 L438.0,98.0 L391.0,98.0 L390.0,97.0 L388.0,97.0 L386.0,95.0 L385.0,95.0 L381.0,91.0 L381.0,90.0 L379.0,87.0 L379.0,84.0 L378.0,83.0 L378.0,64.0 L379.0,63.0 L379.0,29.0 L378.0,28.0 L378.0,25.0 L377.0,24.0 L377.0,23.0 L376.0,22.0 L375.0,19.0 L371.0,15.0 L370.0,15.0 L368.0,13.0 L367.0,13.0 L364.0,11.0 L361.0,11.0 L360.0,10.0 Z"/>
</svg>
